<svg xmlns="http://www.w3.org/2000/svg" xmlns:xlink="http://www.w3.org/1999/xlink" id="processonSvg1000" viewBox="323.0 42.21170696764483 767.0 1004.1882945582338" width="767.0" height="1004.1882945582338"><defs id="ProcessOnDefs1001"><marker id="ProcessOnMarker1152" markerUnits="userSpaceOnUse" orient="auto" markerWidth="16.23606797749979" markerHeight="10.550836550532098" viewBox="-1.0 -1.3763819204711736 16.23606797749979 10.550836550532098" refX="-1.0" refY="3.8990363547948754"><path id="ProcessOnPath1153" d="M12.0 3.8990363547948754L0.0 7.798072709589751V0.0Z" stroke="#323232" stroke-width="2.0" fill="#323232" transform="matrix(1.0,0.0,0.0,1.0,0.0,0.0)"/></marker><marker id="ProcessOnMarker1156" markerUnits="userSpaceOnUse" orient="auto" markerWidth="16.23606797749979" markerHeight="10.550836550532098" viewBox="-1.0 -1.3763819204711736 16.23606797749979 10.550836550532098" refX="-1.0" refY="3.8990363547948754"><path id="ProcessOnPath1157" d="M12.0 3.8990363547948754L0.0 7.798072709589751V0.0Z" stroke="#323232" stroke-width="2.0" fill="#323232" transform="matrix(1.0,0.0,0.0,1.0,0.0,0.0)"/></marker><marker id="ProcessOnMarker1160" markerUnits="userSpaceOnUse" orient="auto" markerWidth="16.23606797749979" markerHeight="10.550836550532098" viewBox="-1.0 -1.3763819204711736 16.23606797749979 10.550836550532098" refX="-1.0" refY="3.8990363547948754"><path id="ProcessOnPath1161" d="M12.0 3.8990363547948754L0.0 7.798072709589751V0.0Z" stroke="#323232" stroke-width="2.0" fill="#323232" transform="matrix(1.0,0.0,0.0,1.0,0.0,0.0)"/></marker><marker id="ProcessOnMarker1164" markerUnits="userSpaceOnUse" orient="auto" markerWidth="16.23606797749979" markerHeight="10.550836550532098" viewBox="-1.0 -1.3763819204711736 16.23606797749979 10.550836550532098" refX="-1.0" refY="3.8990363547948754"><path id="ProcessOnPath1165" d="M12.0 3.8990363547948754L0.0 7.798072709589751V0.0Z" stroke="#323232" stroke-width="2.0" fill="#323232" transform="matrix(1.0,0.0,0.0,1.0,0.0,0.0)"/></marker><marker id="ProcessOnMarker1184" markerUnits="userSpaceOnUse" orient="auto" markerWidth="16.23606797749979" markerHeight="10.550836550532098" viewBox="-1.0 -1.3763819204711736 16.23606797749979 10.550836550532098" refX="-1.0" refY="3.8990363547948754"><path id="ProcessOnPath1185" d="M12.0 3.8990363547948754L0.0 7.798072709589751V0.0Z" stroke="#323232" stroke-width="2.0" fill="#323232" transform="matrix(1.0,0.0,0.0,1.0,0.0,0.0)"/></marker></defs><g id="ProcessOnG1002"><path id="ProcessOnPath1003" d="M323.0 42.21170696764483H1090.0V1046.4000015258787H323.0V42.211706967644886Z" fill="#ffffff"/><g id="ProcessOnG1004"><g id="ProcessOnG1005" transform="matrix(1.0,0.0,0.0,1.0,453.54182802208265,560.6509592303611)" opacity="1.0"><path id="ProcessOnPath1006" d="M0.0 4.0Q0.0 0.0 4.0 0.0L581.8483909569782 0.0Q585.8483909569782 0.0 585.8483909569782 4.0L585.8483909569782 118.21009866162197Q585.8483909569782 122.21009866162197 581.8483909569782 122.21009866162197L4.0 122.21009866162197Q0.0 122.21009866162197 0.0 118.21009866162197Z" stroke="#000000" stroke-width="2.0" stroke-dasharray="none" opacity="1.0" fill="#ffffff"/></g><g id="ProcessOnG1007" transform="matrix(1.0,0.0,0.0,1.0,343.0,530.5826311038002)" opacity="1.0"><path id="ProcessOnPath1008" d="M0.0 10.691822385403762L727.0 10.691822385403762" stroke="#000000" stroke-width="1.0" stroke-dasharray="5.0 2.0" opacity="1.0" fill="none"/><path id="ProcessOnPath1009" d="M0.0 0.0L727.0 0.0L727.0 21.383644770807525L0.0 21.383644770807525Z" stroke="none" stroke-width="0.0" stroke-dasharray="0.0 0.0" opacity="1.0" fill="none"/></g><g id="ProcessOnG1010" transform="matrix(1.0,0.0,0.0,1.0,343.0,373.4864220636531)" opacity="1.0"><path id="ProcessOnPath1011" d="M0.0 10.691822385403762L727.0 10.691822385403762" stroke="#000000" stroke-width="1.0" stroke-dasharray="5.0 2.0" opacity="1.0" fill="none"/><path id="ProcessOnPath1012" d="M0.0 0.0L727.0 0.0L727.0 21.383644770807525L0.0 21.383644770807525Z" stroke="none" stroke-width="0.0" stroke-dasharray="0.0 0.0" opacity="1.0" fill="none"/></g><g id="ProcessOnG1013" transform="matrix(1.0,0.0,0.0,1.0,453.54182802208265,878.6880308916335)" opacity="1.0"><path id="ProcessOnPath1014" d="M0.0 4.0Q0.0 0.0 4.0 0.0L581.8483909569782 0.0Q585.8483909569782 0.0 585.8483909569782 4.0L585.8483909569782 118.21009866162197Q585.8483909569782 122.21009866162197 581.8483909569782 122.21009866162197L4.0 122.21009866162197Q0.0 122.21009866162197 0.0 118.21009866162197Z" stroke="#000000" stroke-width="2.0" stroke-dasharray="none" opacity="1.0" fill="#ffffff"/></g><g id="ProcessOnG1015" transform="matrix(1.0,0.0,0.0,1.0,347.2111172579841,918.0764077339063)" opacity="1.0"><path id="ProcessOnPath1016" d="M0.0 0.0L97.82451670192306 0.0L97.82451670192306 43.433344977076395L0.0 43.433344977076395Z" stroke="none" stroke-width="0.0" stroke-dasharray="none" opacity="1.0" fill="none"/><g id="ProcessOnG1017" transform="matrix(1.0,0.0,0.0,1.0,0.0,13.591672488538197)"><text id="ProcessOnText1018" fill="#000000" font-size="13" x="47.91225835096153" y="13.325" font-family="微软雅黑" font-weight="normal" font-style="normal" text-decoration="none" family="微软雅黑" text-anchor="middle" size="13">数据源</text></g></g><g id="ProcessOnG1019" transform="matrix(1.0,0.0,0.0,1.0,488.2930060713379,898.740527136197)" opacity="1.0"><path id="ProcessOnPath1020" d="M0.0 0.0L114.68082944495296 0.0L114.68082944495296 29.9530626120963L0.0 29.9530626120963Z" stroke="#000000" stroke-width="2.0" stroke-dasharray="none" opacity="1.0" fill="#ffffff"/><g id="ProcessOnG1021" transform="matrix(1.0,0.0,0.0,1.0,10.0,6.85153130604815)"><text id="ProcessOnText1022" fill="#000000" font-size="13" x="46.34041472247648" y="13.325" font-family="微软雅黑" font-weight="normal" font-style="normal" text-decoration="none" family="微软雅黑" text-anchor="middle" size="13">历史销量数据</text></g></g><g id="ProcessOnG1023" transform="matrix(1.0,0.0,0.0,1.0,756.2253743448125,898.740527136197)" opacity="1.0"><path id="ProcessOnPath1024" d="M0.0 0.0L114.68082944495296 0.0L114.68082944495296 29.9530626120963L0.0 29.9530626120963Z" stroke="#000000" stroke-width="2.0" stroke-dasharray="none" opacity="1.0" fill="#ffffff"/><g id="ProcessOnG1025" transform="matrix(1.0,0.0,0.0,1.0,10.0,6.85153130604815)"><text id="ProcessOnText1026" fill="#000000" font-size="13" x="46.34041472247648" y="13.325" font-family="微软雅黑" font-weight="normal" font-style="normal" text-decoration="none" family="微软雅黑" text-anchor="middle" size="13">属性信息</text></g></g><g id="ProcessOnG1027" transform="matrix(1.0,0.0,0.0,1.0,622.2030246729212,898.740527136197)" opacity="1.0"><path id="ProcessOnPath1028" d="M0.0 0.0L114.68082944495296 0.0L114.68082944495296 29.9530626120963L0.0 29.9530626120963Z" stroke="#000000" stroke-width="2.0" stroke-dasharray="none" opacity="1.0" fill="#ffffff"/><g id="ProcessOnG1029" transform="matrix(1.0,0.0,0.0,1.0,10.0,6.85153130604815)"><text id="ProcessOnText1030" fill="#000000" font-size="13" x="46.34041472247648" y="13.325" font-family="微软雅黑" font-weight="normal" font-style="normal" text-decoration="none" family="微软雅黑" text-anchor="middle" size="13"> 会员信息</text></g></g><g id="ProcessOnG1031" transform="matrix(1.0,0.0,0.0,1.0,453.54182802208265,401.63242339972487)" opacity="1.0"><path id="ProcessOnPath1032" d="M0.0 4.0Q0.0 0.0 4.0 0.0L581.8483909569782 0.0Q585.8483909569782 0.0 585.8483909569782 4.0L585.8483909569782 118.21009866162197Q585.8483909569782 122.21009866162197 581.8483909569782 122.21009866162197L4.0 122.21009866162197Q0.0 122.21009866162197 0.0 118.21009866162197Z" stroke="#000000" stroke-width="2.0" stroke-dasharray="none" opacity="1.0" fill="#ffffff"/></g><g id="ProcessOnG1033" transform="matrix(1.0,0.0,0.0,1.0,347.2111172579841,441.0208002419977)" opacity="1.0"><path id="ProcessOnPath1034" d="M0.0 0.0L97.82451670192306 0.0L97.82451670192306 43.433344977076395L0.0 43.433344977076395Z" stroke="none" stroke-width="0.0" stroke-dasharray="none" opacity="1.0" fill="none"/><g id="ProcessOnG1035" transform="matrix(1.0,0.0,0.0,1.0,0.0,13.591672488538197)"><text id="ProcessOnText1036" fill="#000000" font-size="13" x="47.91225835096153" y="13.325" font-family="微软雅黑" font-weight="normal" font-style="normal" text-decoration="none" family="微软雅黑" text-anchor="middle" size="13">数据计算</text></g></g><g id="ProcessOnG1037" transform="matrix(1.0,0.0,0.0,1.0,453.54182802208265,246.61388756908858)" opacity="1.0"><path id="ProcessOnPath1038" d="M0.0 4.0Q0.0 0.0 4.0 0.0L581.8483909569782 0.0Q585.8483909569782 0.0 585.8483909569782 4.0L585.8483909569782 118.21009866162197Q585.8483909569782 122.21009866162197 581.8483909569782 122.21009866162197L4.0 122.21009866162197Q0.0 122.21009866162197 0.0 118.21009866162197Z" stroke="#000000" stroke-width="2.0" stroke-dasharray="none" opacity="1.0" fill="#ffffff"/></g><g id="ProcessOnG1039" transform="matrix(1.0,0.0,0.0,1.0,347.2111172579841,287.5041346511556)" opacity="1.0"><path id="ProcessOnPath1040" d="M0.0 0.0L97.82451670192306 0.0L97.82451670192306 43.433344977076395L0.0 43.433344977076395Z" stroke="none" stroke-width="0.0" stroke-dasharray="none" opacity="1.0" fill="none"/><g id="ProcessOnG1041" transform="matrix(1.0,0.0,0.0,1.0,0.0,13.591672488538197)"><text id="ProcessOnText1042" fill="#000000" font-size="13" x="47.91225835096153" y="13.325" font-family="微软雅黑" font-weight="normal" font-style="normal" text-decoration="none" family="微软雅黑" text-anchor="middle" size="13">模型训练</text></g></g><g id="ProcessOnG1043" transform="matrix(1.0,0.0,0.0,1.0,493.96447598534616,257.33306758833004)" opacity="1.0"><path id="ProcessOnPath1044" d="M0.0 0.0L107.1709593239832 0.0L107.1709593239832 100.77173862313907L0.0 100.77173862313907Z" stroke="#000000" stroke-width="2.0" stroke-dasharray="none" opacity="1.0" fill="#ffffff"/><g id="ProcessOnG1045" transform="matrix(1.0,0.0,0.0,1.0,10.0,42.260869311569536)"><text id="ProcessOnText1046" fill="#000000" font-size="13" x="42.5854796619916" y="13.325" font-family="微软雅黑" font-weight="normal" font-style="normal" text-decoration="none" family="微软雅黑" text-anchor="middle" size="13">趋势分离</text></g></g><g id="ProcessOnG1047" transform="matrix(1.0,0.0,0.0,1.0,755.8007390660497,257.57330735771365)" opacity="1.0"><path id="ProcessOnPath1048" d="M0.0 0.0L112.63050648607285 0.0L112.63050648607285 25.93965136142113L0.0 25.93965136142113Z" stroke="#000000" stroke-width="2.0" stroke-dasharray="none" opacity="1.0" fill="#ffffff"/><g id="ProcessOnG1049" transform="matrix(1.0,0.0,0.0,1.0,10.0,4.844825680710565)"><text id="ProcessOnText1050" fill="#000000" font-size="13" x="45.31525324303642" y="13.325" font-family="微软雅黑" font-weight="normal" font-style="normal" text-decoration="none" family="微软雅黑" text-anchor="middle" size="13">XGBoost</text></g></g><g id="ProcessOnG1051" transform="matrix(1.0,0.0,0.0,1.0,343.0,1005.0163567550712)" opacity="1.0"><path id="ProcessOnPath1052" d="M0.0 10.691822385403762L727.0 10.691822385403762" stroke="#000000" stroke-width="1.0" stroke-dasharray="5.0 2.0" opacity="1.0" fill="none"/><path id="ProcessOnPath1053" d="M0.0 0.0L727.0 0.0L727.0 21.383644770807525L0.0 21.383644770807525Z" stroke="none" stroke-width="0.0" stroke-dasharray="0.0 0.0" opacity="1.0" fill="none"/></g><g id="ProcessOnG1054" transform="matrix(1.0,0.0,0.0,1.0,675.8738514674332,467.61461219951354)" opacity="1.0"><path id="ProcessOnPath1055" d="M0.0 0.0L159.9581941025283 0.0L159.9581941025283 33.08257779837447L0.0 33.08257779837447Z" stroke="#000000" stroke-width="2.0" stroke-dasharray="none" opacity="1.0" fill="#ffffff"/><g id="ProcessOnG1056" transform="matrix(1.0,0.0,0.0,1.0,10.0,8.416288899187236)"><text id="ProcessOnText1057" fill="#000000" font-size="13" x="68.97909705126415" y="13.325" font-family="微软雅黑" font-weight="normal" font-style="normal" text-decoration="none" family="微软雅黑" text-anchor="middle" size="13">特征构建</text></g></g><g id="ProcessOnG1058" transform="matrix(1.0,0.0,0.0,1.0,347.2111172579841,600.9518944913046)" opacity="1.0"><path id="ProcessOnPath1059" d="M0.0 0.0L97.82451670192306 0.0L97.82451670192306 43.433344977076395L0.0 43.433344977076395Z" stroke="none" stroke-width="0.0" stroke-dasharray="none" opacity="1.0" fill="none"/><g id="ProcessOnG1060" transform="matrix(1.0,0.0,0.0,1.0,0.0,13.591672488538197)"><text id="ProcessOnText1061" fill="#000000" font-size="13" x="47.91225835096153" y="13.325" font-family="微软雅黑" font-weight="normal" font-style="normal" text-decoration="none" family="微软雅黑" text-anchor="middle" size="13">数据平台</text></g></g><g id="ProcessOnG1062" transform="matrix(1.0,0.0,0.0,1.0,343.0,849.0679317171945)" opacity="1.0"><path id="ProcessOnPath1063" d="M0.0 10.691822385403762L727.0 10.691822385403762" stroke="#000000" stroke-width="1.0" stroke-dasharray="5.0 2.0" opacity="1.0" fill="none"/><path id="ProcessOnPath1064" d="M0.0 0.0L727.0 0.0L727.0 21.383644770807525L0.0 21.383644770807525Z" stroke="none" stroke-width="0.0" stroke-dasharray="0.0 0.0" opacity="1.0" fill="none"/></g><g id="ProcessOnG1065" transform="matrix(1.0,0.0,0.0,1.0,493.97743024090005,467.61461219951354)" opacity="1.0"><path id="ProcessOnPath1066" d="M0.0 0.0L165.92300578702054 0.0L165.92300578702054 33.08257779837447L0.0 33.08257779837447Z" stroke="#000000" stroke-width="2.0" stroke-dasharray="none" opacity="1.0" fill="#ffffff"/><g id="ProcessOnG1067" transform="matrix(1.0,0.0,0.0,1.0,10.0,8.416288899187236)"><text id="ProcessOnText1068" fill="#000000" font-size="13" x="71.96150289351027" y="13.325" font-family="微软雅黑" font-weight="normal" font-style="normal" text-decoration="none" family="微软雅黑" text-anchor="middle" size="13">数据处理</text></g></g><g id="ProcessOnG1069" transform="matrix(1.0,0.0,0.0,1.0,851.2865910245068,467.61461219951354)" opacity="1.0"><path id="ProcessOnPath1070" d="M0.0 0.0L151.81990152911806 0.0L151.81990152911806 33.08257779837447L0.0 33.08257779837447Z" stroke="#000000" stroke-width="2.0" stroke-dasharray="none" opacity="1.0" fill="#ffffff"/><g id="ProcessOnG1071" transform="matrix(1.0,0.0,0.0,1.0,10.0,8.416288899187236)"><text id="ProcessOnText1072" fill="#000000" font-size="13" x="64.90995076455903" y="13.325" font-family="微软雅黑" font-weight="normal" font-style="normal" text-decoration="none" family="微软雅黑" text-anchor="middle" size="13">数据切分</text></g></g><g id="ProcessOnG1073" transform="matrix(1.0,0.0,0.0,1.0,488.2930060713379,947.8039002952339)" opacity="1.0"><path id="ProcessOnPath1074" d="M0.0 0.0L114.68082944495296 0.0L114.68082944495296 29.9530626120963L0.0 29.9530626120963Z" stroke="#000000" stroke-width="2.0" stroke-dasharray="none" opacity="1.0" fill="#ffffff"/><g id="ProcessOnG1075" transform="matrix(1.0,0.0,0.0,1.0,10.0,6.85153130604815)"><text id="ProcessOnText1076" fill="#000000" font-size="13" x="46.34041472247648" y="13.325" font-family="微软雅黑" font-weight="normal" font-style="normal" text-decoration="none" family="微软雅黑" text-anchor="middle" size="13">日期节假日</text></g></g><g id="ProcessOnG1077" transform="matrix(1.0,0.0,0.0,1.0,756.2253743448125,947.8039002952339)" opacity="1.0"><path id="ProcessOnPath1078" d="M0.0 0.0L114.68082944495296 0.0L114.68082944495296 29.9530626120963L0.0 29.9530626120963Z" stroke="#000000" stroke-width="2.0" stroke-dasharray="none" opacity="1.0" fill="#ffffff"/><g id="ProcessOnG1079" transform="matrix(1.0,0.0,0.0,1.0,10.0,6.85153130604815)"><text id="ProcessOnText1080" fill="#000000" font-size="13" x="46.34041472247648" y="13.325" font-family="微软雅黑" font-weight="normal" font-style="normal" text-decoration="none" family="微软雅黑" text-anchor="middle" size="13">价格信息</text></g></g><g id="ProcessOnG1081" transform="matrix(1.0,0.0,0.0,1.0,622.2030246729213,947.8039002952339)" opacity="1.0"><path id="ProcessOnPath1082" d="M0.0 0.0L114.68082944495296 0.0L114.68082944495296 29.9530626120963L0.0 29.9530626120963Z" stroke="#000000" stroke-width="2.0" stroke-dasharray="none" opacity="1.0" fill="#ffffff"/><g id="ProcessOnG1083" transform="matrix(1.0,0.0,0.0,1.0,10.0,6.85153130604815)"><text id="ProcessOnText1084" fill="#000000" font-size="13" x="46.34041472247648" y="13.325" font-family="微软雅黑" font-weight="normal" font-style="normal" text-decoration="none" family="微软雅黑" text-anchor="middle" size="13">促销信息</text></g></g><g id="ProcessOnG1085" transform="matrix(1.0,0.0,0.0,1.0,889.232573386498,898.740527136197)" opacity="1.0"><path id="ProcessOnPath1086" d="M0.0 0.0L114.68082944495296 0.0L114.68082944495296 29.9530626120963L0.0 29.9530626120963Z" stroke="#000000" stroke-width="2.0" stroke-dasharray="none" opacity="1.0" fill="#ffffff"/><g id="ProcessOnG1087" transform="matrix(1.0,0.0,0.0,1.0,10.0,6.85153130604815)"><text id="ProcessOnText1088" fill="#000000" font-size="13" x="46.34041472247648" y="13.325" font-family="微软雅黑" font-weight="normal" font-style="normal" text-decoration="none" family="微软雅黑" text-anchor="middle" size="13">天气数据</text></g></g><g id="ProcessOnG1089" transform="matrix(1.0,0.0,0.0,1.0,889.232573386498,947.8039002952339)" opacity="1.0"><path id="ProcessOnPath1090" d="M0.0 0.0L114.68082944495296 0.0L114.68082944495296 29.9530626120963L0.0 29.9530626120963Z" stroke="#000000" stroke-width="2.0" stroke-dasharray="none" opacity="1.0" fill="#ffffff"/><g id="ProcessOnG1091" transform="matrix(1.0,0.0,0.0,1.0,10.0,6.85153130604815)"><text id="ProcessOnText1092" fill="#000000" font-size="13" x="46.34041472247648" y="13.325" font-family="微软雅黑" font-weight="normal" font-style="normal" text-decoration="none" family="微软雅黑" text-anchor="middle" size="13">商圈地理信息</text></g></g><g id="ProcessOnG1093" transform="matrix(1.0,0.0,0.0,1.0,493.9635678762831,633.9360036099422)" opacity="1.0"><path id="ProcessOnPath1094" d="M0.0 0.0L165.92300578702054 0.0L165.92300578702054 34.09075076477002L0.0 34.09075076477002Z" stroke="#000000" stroke-width="2.0" stroke-dasharray="none" opacity="1.0" fill="#ffffff"/><g id="ProcessOnG1095" transform="matrix(1.0,0.0,0.0,1.0,10.0,8.92037538238501)"><text id="ProcessOnText1096" fill="#000000" font-size="13" x="71.96150289351027" y="13.325" font-family="微软雅黑" font-weight="normal" font-style="normal" text-decoration="none" family="微软雅黑" text-anchor="middle" size="13">Hive</text></g></g><g id="ProcessOnG1097" transform="matrix(1.0,0.0,0.0,1.0,892.2665527702623,577.3103795849736)" opacity="1.0"><path id="ProcessOnPath1098" d="M0.0 0.0L110.82607741874568 0.0L110.82607741874568 90.71637478973848L0.0 90.71637478973848Z" stroke="#000000" stroke-width="2.0" stroke-dasharray="none" opacity="1.0" fill="#ffffff"/><g id="ProcessOnG1099" transform="matrix(1.0,0.0,0.0,1.0,10.0,37.23318739486924)"><text id="ProcessOnText1100" fill="#000000" font-size="13" x="44.41303870937284" y="13.325" font-family="微软雅黑" font-weight="normal" font-style="normal" text-decoration="none" family="微软雅黑" text-anchor="middle" size="13">Postgresql</text></g></g><g id="ProcessOnG1101" transform="matrix(1.0,0.0,0.0,1.0,343.0,689.3714264124376)" opacity="1.0"><path id="ProcessOnPath1102" d="M0.0 10.691822385403762L727.0 10.691822385403762" stroke="#000000" stroke-width="1.0" stroke-dasharray="5.0 2.0" opacity="1.0" fill="none"/><path id="ProcessOnPath1103" d="M0.0 0.0L727.0 0.0L727.0 21.383644770807525L0.0 21.383644770807525Z" stroke="none" stroke-width="0.0" stroke-dasharray="0.0 0.0" opacity="1.0" fill="none"/></g><g id="ProcessOnG1104" transform="matrix(1.0,0.0,0.0,1.0,453.54182802208265,719.6694950609973)" opacity="1.0"><path id="ProcessOnPath1105" d="M0.0 4.0Q0.0 0.0 4.0 0.0L581.8483909569782 0.0Q585.8483909569782 0.0 585.8483909569782 4.0L585.8483909569782 118.21009866162197Q585.8483909569782 122.21009866162197 581.8483909569782 122.21009866162197L4.0 122.21009866162197Q0.0 122.21009866162197 0.0 118.21009866162197Z" stroke="#000000" stroke-width="2.0" stroke-dasharray="none" opacity="1.0" fill="#ffffff"/></g><g id="ProcessOnG1106" transform="matrix(1.0,0.0,0.0,1.0,347.2111172579841,759.0578719032701)" opacity="1.0"><path id="ProcessOnPath1107" d="M0.0 0.0L97.82451670192306 0.0L97.82451670192306 43.433344977076395L0.0 43.433344977076395Z" stroke="none" stroke-width="0.0" stroke-dasharray="none" opacity="1.0" fill="none"/><g id="ProcessOnG1108" transform="matrix(1.0,0.0,0.0,1.0,0.0,13.591672488538197)"><text id="ProcessOnText1109" fill="#000000" font-size="13" x="47.91225835096153" y="13.325" font-family="微软雅黑" font-weight="normal" font-style="normal" text-decoration="none" family="微软雅黑" text-anchor="middle" size="13">数据导入</text></g></g><g id="ProcessOnG1110" transform="matrix(1.0,0.0,0.0,1.0,493.9635678762831,736.628982821769)" opacity="1.0"><path id="ProcessOnPath1111" d="M0.0 0.0L141.89320078491053 0.0L141.89320078491053 34.09075076476993L0.0 34.09075076476993Z" stroke="#000000" stroke-width="2.0" stroke-dasharray="none" opacity="1.0" fill="#ffffff"/><g id="ProcessOnG1112" transform="matrix(1.0,0.0,0.0,1.0,10.0,8.920375382384965)"><text id="ProcessOnText1113" fill="#000000" font-size="13" x="59.94660039245527" y="13.325" font-family="微软雅黑" font-weight="normal" font-style="normal" text-decoration="none" family="微软雅黑" text-anchor="middle" size="13">零售商祼数据</text></g></g><g id="ProcessOnG1114" transform="matrix(1.0,0.0,0.0,1.0,493.9635678762831,791.4581940793996)" opacity="1.0"><path id="ProcessOnPath1115" d="M0.0 0.0L141.89320078491053 0.0L141.89320078491053 34.09075076476993L0.0 34.09075076476993Z" stroke="#000000" stroke-width="2.0" stroke-dasharray="none" opacity="1.0" fill="#ffffff"/><g id="ProcessOnG1116" transform="matrix(1.0,0.0,0.0,1.0,10.0,8.920375382384965)"><text id="ProcessOnText1117" fill="#000000" font-size="13" x="59.94660039245527" y="13.325" font-family="微软雅黑" font-weight="normal" font-style="normal" text-decoration="none" family="微软雅黑" text-anchor="middle" size="13">数据清洗</text></g></g><g id="ProcessOnG1118" transform="matrix(1.0,0.0,0.0,1.0,677.9918849614119,791.4581940793997)" opacity="1.0"><path id="ProcessOnPath1119" d="M0.0 0.0L141.89320078491053 0.0L141.89320078491053 34.09075076476993L0.0 34.09075076476993Z" stroke="#000000" stroke-width="2.0" stroke-dasharray="none" opacity="1.0" fill="#ffffff"/><g id="ProcessOnG1120" transform="matrix(1.0,0.0,0.0,1.0,10.0,8.920375382384965)"><text id="ProcessOnText1121" fill="#000000" font-size="13" x="59.94660039245527" y="13.325" font-family="微软雅黑" font-weight="normal" font-style="normal" text-decoration="none" family="微软雅黑" text-anchor="middle" size="13">数据映射</text></g></g><g id="ProcessOnG1122" transform="matrix(1.0,0.0,0.0,1.0,677.9918849614119,736.628982821769)" opacity="1.0"><path id="ProcessOnPath1123" d="M0.0 0.0L141.89320078491053 0.0L141.89320078491053 34.09075076476993L0.0 34.09075076476993Z" stroke="#000000" stroke-width="2.0" stroke-dasharray="none" opacity="1.0" fill="#ffffff"/><g id="ProcessOnG1124" transform="matrix(1.0,0.0,0.0,1.0,10.0,8.920375382384965)"><text id="ProcessOnText1125" fill="#000000" font-size="13" x="59.94660039245527" y="13.325" font-family="微软雅黑" font-weight="normal" font-style="normal" text-decoration="none" family="微软雅黑" text-anchor="middle" size="13">数据准确性检查</text></g></g><g id="ProcessOnG1126" transform="matrix(1.0,0.0,0.0,1.0,862.0202020465405,736.628982821769)" opacity="1.0"><path id="ProcessOnPath1127" d="M0.0 0.0L141.89320078491053 0.0L141.89320078491053 34.09075076476993L0.0 34.09075076476993Z" stroke="#000000" stroke-width="2.0" stroke-dasharray="none" opacity="1.0" fill="#ffffff"/><g id="ProcessOnG1128" transform="matrix(1.0,0.0,0.0,1.0,10.0,8.920375382384965)"><text id="ProcessOnText1129" fill="#000000" font-size="13" x="59.94660039245527" y="13.325" font-family="微软雅黑" font-weight="normal" font-style="normal" text-decoration="none" family="微软雅黑" text-anchor="middle" size="13">标准化编号</text></g></g><g id="ProcessOnG1130" transform="matrix(1.0,0.0,0.0,1.0,675.0844913272349,633.9360036099422)" opacity="1.0"><path id="ProcessOnPath1131" d="M0.0 0.0L189.9315137490044 0.0L189.9315137490044 34.09075076477002L0.0 34.09075076477002Z" stroke="#000000" stroke-width="2.0" stroke-dasharray="none" opacity="1.0" fill="#ffffff"/><g id="ProcessOnG1132" transform="matrix(1.0,0.0,0.0,1.0,10.0,8.92037538238501)"><text id="ProcessOnText1133" fill="#000000" font-size="13" x="83.9657568745022" y="13.325" font-family="微软雅黑" font-weight="normal" font-style="normal" text-decoration="none" family="微软雅黑" text-anchor="middle" size="13">Spark</text></g></g><g id="ProcessOnG1134" transform="matrix(1.0,0.0,0.0,1.0,493.9635678762831,577.3103795849736)" opacity="1.0"><path id="ProcessOnPath1135" d="M0.0 0.0L118.9242898609245 0.0L118.9242898609245 35.12030756522376L0.0 35.12030756522376Z" stroke="#000000" stroke-width="2.0" stroke-dasharray="none" opacity="1.0" fill="#ffffff"/><g id="ProcessOnG1136" transform="matrix(1.0,0.0,0.0,1.0,10.0,9.43515378261188)"><text id="ProcessOnText1137" fill="#000000" font-size="13" x="48.46214493046225" y="13.325" font-family="微软雅黑" font-weight="normal" font-style="normal" text-decoration="none" family="微软雅黑" text-anchor="middle" size="13">Sparksql</text></g></g><g id="ProcessOnG1138" transform="matrix(1.0,0.0,0.0,1.0,618.5297400309495,577.3103795849736)" opacity="1.0"><path id="ProcessOnPath1139" d="M0.0 0.0L118.9242898609245 0.0L118.9242898609245 35.12030756522376L0.0 35.12030756522376Z" stroke="#000000" stroke-width="2.0" stroke-dasharray="none" opacity="1.0" fill="#ffffff"/><g id="ProcessOnG1140" transform="matrix(1.0,0.0,0.0,1.0,10.0,9.43515378261188)"><text id="ProcessOnText1141" fill="#000000" font-size="13" x="48.46214493046225" y="13.325" font-family="微软雅黑" font-weight="normal" font-style="normal" text-decoration="none" family="微软雅黑" text-anchor="middle" size="13">pyspark</text></g></g><g id="ProcessOnG1142" transform="matrix(1.0,0.0,0.0,1.0,743.095912185616,577.3103795849736)" opacity="1.0"><path id="ProcessOnPath1143" d="M0.0 0.0L118.9242898609245 0.0L118.9242898609245 35.12030756522376L0.0 35.12030756522376Z" stroke="#000000" stroke-width="2.0" stroke-dasharray="none" opacity="1.0" fill="#ffffff"/><g id="ProcessOnG1144" transform="matrix(1.0,0.0,0.0,1.0,10.0,9.43515378261188)"><text id="ProcessOnText1145" fill="#000000" font-size="13" x="48.46214493046225" y="13.325" font-family="微软雅黑" font-weight="normal" font-style="normal" text-decoration="none" family="微软雅黑" text-anchor="middle" size="13">Ml</text></g></g><g id="ProcessOnG1146" transform="matrix(1.0,0.0,0.0,1.0,862.0202020465405,789.7274868233745)" opacity="1.0"><path id="ProcessOnPath1147" d="M0.0 0.0L141.89320078491053 0.0L141.89320078491053 37.552165276820396L0.0 37.552165276820396Z" stroke="#000000" stroke-width="2.0" stroke-dasharray="none" opacity="1.0" fill="#ffffff"/><g id="ProcessOnG1148" transform="matrix(1.0,0.0,0.0,1.0,10.0,10.651082638410198)"><text id="ProcessOnText1149" fill="#000000" font-size="13" x="59.94660039245527" y="13.325" font-family="微软雅黑" font-weight="bold" font-style="normal" text-decoration="none" family="微软雅黑" text-anchor="middle" size="13">... ...</text></g></g><g id="ProcessOnG1150"><path id="ProcessOnPath1151" d="M746.4660235005717 878.6880308916335L746.4660235005717 860.2838123071264L746.4660235005717 860.2838123071264L746.4660235005717 857.1156617001191" stroke="#323232" stroke-width="2.0" stroke-dasharray="none" fill="none" marker-end="url(#ProcessOnMarker1152)"/></g><g id="ProcessOnG1154"><path id="ProcessOnPath1155" d="M746.4660235005717 719.6694950609973L746.4660235005717 701.2652764764902L746.4660235005717 701.2652764764902L746.4660235005717 698.0971258694829" stroke="#323232" stroke-width="2.0" stroke-dasharray="none" fill="none" marker-end="url(#ProcessOnMarker1156)"/></g><g id="ProcessOnG1158"><path id="ProcessOnPath1159" d="M746.4660235005717 560.6509592303611L746.4660235005717 542.246740645854L746.4660235005717 542.246740645854L746.4660235005717 539.0785900388466" stroke="#323232" stroke-width="2.0" stroke-dasharray="none" fill="none" marker-end="url(#ProcessOnMarker1160)"/></g><g id="ProcessOnG1162"><path id="ProcessOnPath1163" d="M746.4660235005717 401.63242339972487L746.4660235005717 385.22820481521774L746.4660235005717 385.22820481521774L746.4660235005717 384.0600542082104" stroke="#323232" stroke-width="2.0" stroke-dasharray="none" fill="none" marker-end="url(#ProcessOnMarker1164)"/></g><g id="ProcessOnG1166" transform="matrix(1.0,0.0,0.0,1.0,343.0,218.46788623301683)" opacity="1.0"><path id="ProcessOnPath1167" d="M0.0 10.691822385403762L727.0 10.691822385403762" stroke="#000000" stroke-width="1.0" stroke-dasharray="5.0 2.0" opacity="1.0" fill="none"/><path id="ProcessOnPath1168" d="M0.0 0.0L727.0 0.0L727.0 21.383644770807525L0.0 21.383644770807525Z" stroke="none" stroke-width="0.0" stroke-dasharray="0.0 0.0" opacity="1.0" fill="none"/></g><g id="ProcessOnG1169" transform="matrix(1.0,0.0,0.0,1.0,453.54182802208265,91.59535173845234)" opacity="1.0"><path id="ProcessOnPath1170" d="M0.0 4.0Q0.0 0.0 4.0 0.0L581.8483909569782 0.0Q585.8483909569782 0.0 585.8483909569782 4.0L585.8483909569782 118.21009866162197Q585.8483909569782 122.21009866162197 581.8483909569782 122.21009866162197L4.0 122.21009866162197Q0.0 122.21009866162197 0.0 118.21009866162197Z" stroke="#000000" stroke-width="2.0" stroke-dasharray="none" opacity="1.0" fill="#ffffff"/></g><g id="ProcessOnG1171" transform="matrix(1.0,0.0,0.0,1.0,347.2111172579841,132.4855988205193)" opacity="1.0"><path id="ProcessOnPath1172" d="M0.0 0.0L97.82451670192306 0.0L97.82451670192306 43.433344977076395L0.0 43.433344977076395Z" stroke="none" stroke-width="0.0" stroke-dasharray="none" opacity="1.0" fill="none"/><g id="ProcessOnG1173" transform="matrix(1.0,0.0,0.0,1.0,0.0,13.591672488538197)"><text id="ProcessOnText1174" fill="#000000" font-size="13" x="47.91225835096153" y="13.325" font-family="微软雅黑" font-weight="normal" font-style="normal" text-decoration="none" family="微软雅黑" text-anchor="middle" size="13">模型应用</text></g></g><g id="ProcessOnG1175" transform="matrix(1.0,0.0,0.0,1.0,770.4284016853862,132.4855988205193)" opacity="1.0"><path id="ProcessOnPath1176" d="M0.0 0.0L228.11212672018107 0.0L228.11212672018107 31.274708628715842L0.0 31.274708628715842Z" stroke="#000000" stroke-width="2.0" stroke-dasharray="none" opacity="1.0" fill="#ffffff"/><g id="ProcessOnG1177" transform="matrix(1.0,0.0,0.0,1.0,10.0,7.512354314357921)"><text id="ProcessOnText1178" fill="#000000" font-size="13" x="103.05606336009053" y="13.325" font-family="微软雅黑" font-weight="normal" font-style="normal" text-decoration="none" family="微软雅黑" text-anchor="middle" size="13">定期更新</text></g></g><g id="ProcessOnG1179" transform="matrix(1.0,0.0,0.0,1.0,343.0,62.21170696764483)" opacity="1.0"><path id="ProcessOnPath1180" d="M0.0 10.691822385403762L727.0 10.691822385403762" stroke="#000000" stroke-width="1.0" stroke-dasharray="5.0 2.0" opacity="1.0" fill="none"/><path id="ProcessOnPath1181" d="M0.0 0.0L727.0 0.0L727.0 21.383644770807525L0.0 21.383644770807525Z" stroke="none" stroke-width="0.0" stroke-dasharray="0.0 0.0" opacity="1.0" fill="none"/></g><g id="ProcessOnG1182"><path id="ProcessOnPath1183" d="M746.4660235005717 246.6138875690886L746.4660235005717 230.20966898458147L746.4660235005717 230.20966898458147L746.4660235005717 229.04151837757414" stroke="#323232" stroke-width="2.0" stroke-dasharray="none" fill="none" marker-end="url(#ProcessOnMarker1184)"/></g><g id="ProcessOnG1186" transform="matrix(1.0,0.0,0.0,1.0,493.9635678762831,132.4855988205193)" opacity="1.0"><path id="ProcessOnPath1187" d="M0.0 0.0L238.21825169269772 0.0L238.21825169269772 31.274708628715814L0.0 31.274708628715814Z" stroke="#000000" stroke-width="2.0" stroke-dasharray="none" opacity="1.0" fill="#ffffff"/><g id="ProcessOnG1188" transform="matrix(1.0,0.0,0.0,1.0,10.0,7.512354314357907)"><text id="ProcessOnText1189" fill="#000000" font-size="13" x="108.10912584634886" y="13.325" font-family="微软雅黑" font-weight="normal" font-style="normal" text-decoration="none" family="微软雅黑" text-anchor="middle" size="13">模型部署</text></g></g><g id="ProcessOnG1190" transform="matrix(1.0,0.0,0.0,1.0,624.2434734707017,257.33306758833004)" opacity="1.0"><path id="ProcessOnPath1191" d="M0.0 0.0L112.63050648607285 0.0L112.63050648607285 25.93965136142113L0.0 25.93965136142113Z" stroke="#000000" stroke-width="2.0" stroke-dasharray="none" opacity="1.0" fill="#ffffff"/><g id="ProcessOnG1192" transform="matrix(1.0,0.0,0.0,1.0,10.0,4.844825680710565)"><text id="ProcessOnText1193" fill="#000000" font-size="13" x="45.31525324303642" y="13.325" font-family="微软雅黑" font-weight="normal" font-style="normal" text-decoration="none" family="微软雅黑" text-anchor="middle" size="13">LSTM</text></g></g><g id="ProcessOnG1194" transform="matrix(1.0,0.0,0.0,1.0,624.8852613067734,297.38071055853237)" opacity="1.0"><path id="ProcessOnPath1195" d="M0.0 0.0L112.63050648607285 0.0L112.63050648607285 25.93965136142113L0.0 25.93965136142113Z" stroke="#000000" stroke-width="2.0" stroke-dasharray="none" opacity="1.0" fill="#ffffff"/><g id="ProcessOnG1196" transform="matrix(1.0,0.0,0.0,1.0,10.0,4.844825680710565)"><text id="ProcessOnText1197" fill="#000000" font-size="13" x="45.31525324303642" y="13.325" font-family="微软雅黑" font-weight="normal" font-style="normal" text-decoration="none" family="微软雅黑" text-anchor="middle" size="13">WaveNet</text></g></g><g id="ProcessOnG1198" transform="matrix(1.0,0.0,0.0,1.0,893.6832410716718,257.37019765050815)" opacity="1.0"><path id="ProcessOnPath1199" d="M0.0 0.0L107.1709593239832 0.0L107.1709593239832 100.77173862313907L0.0 100.77173862313907Z" stroke="#000000" stroke-width="2.0" stroke-dasharray="none" opacity="1.0" fill="#ffffff"/><g id="ProcessOnG1200" transform="matrix(1.0,0.0,0.0,1.0,10.0,42.260869311569536)"><text id="ProcessOnText1201" fill="#000000" font-size="13" x="42.5854796619916" y="13.325" font-family="微软雅黑" font-weight="normal" font-style="normal" text-decoration="none" family="微软雅黑" text-anchor="middle" size="13">模型选择</text></g></g><g id="ProcessOnG1202" transform="matrix(1.0,0.0,0.0,1.0,625.1409750145101,333.6120686879129)" opacity="1.0"><path id="ProcessOnPath1203" d="M0.0 0.0L243.29027888035876 0.0L243.29027888035876 26.02429529524136L0.0 26.02429529524136Z" stroke="#000000" stroke-width="2.0" stroke-dasharray="none" opacity="1.0" fill="#ffffff"/><g id="ProcessOnG1204" transform="matrix(1.0,0.0,0.0,1.0,10.0,4.887147647620679)"><text id="ProcessOnText1205" fill="#000000" font-size="13" x="110.64513944017938" y="13.325" font-family="微软雅黑" font-weight="normal" font-style="normal" text-decoration="none" family="微软雅黑" text-anchor="middle" size="13">机器学习模型</text></g></g><g id="ProcessOnG1206" transform="matrix(1.0,0.0,0.0,1.0,755.800747408796,298.15752323336756)" opacity="1.0"><path id="ProcessOnPath1207" d="M0.0 0.0L112.63050648607285 0.0L112.63050648607285 25.93965136142113L0.0 25.93965136142113Z" stroke="#000000" stroke-width="2.0" stroke-dasharray="none" opacity="1.0" fill="#ffffff"/><g id="ProcessOnG1208" transform="matrix(1.0,0.0,0.0,1.0,10.0,4.844825680710565)"><text id="ProcessOnText1209" fill="#000000" font-size="13" x="45.31525324303642" y="13.325" font-family="微软雅黑" font-weight="normal" font-style="normal" text-decoration="none" family="微软雅黑" text-anchor="middle" size="13">LightGBM</text></g></g><g id="ProcessOnG1210" transform="matrix(1.0,0.0,0.0,1.0,675.8738514674332,424.7787802463855)" opacity="1.0"><path id="ProcessOnPath1211" d="M0.0 0.0L77.0614523543047 0.0L77.0614523543047 26.554855848447538L0.0 26.554855848447538Z" stroke="#000000" stroke-width="2.0" stroke-dasharray="none" opacity="1.0" fill="#ffffff"/><g id="ProcessOnG1212" transform="matrix(1.0,0.0,0.0,1.0,10.0,5.152427924223769)"><text id="ProcessOnText1213" fill="#000000" font-size="13" x="27.530726177152353" y="13.325" font-family="微软雅黑" font-weight="normal" font-style="normal" text-decoration="none" family="微软雅黑" text-anchor="middle" size="13">滑窗法</text></g></g><g id="ProcessOnG1214" transform="matrix(1.0,0.0,0.0,1.0,493.9621816398214,424.4812320093902)" opacity="1.0"><path id="ProcessOnPath1215" d="M0.0 0.0L76.14817841033222 0.0L76.14817841033222 28.577948503775044L0.0 28.577948503775044Z" stroke="#000000" stroke-width="2.0" stroke-dasharray="none" opacity="1.0" fill="#ffffff"/><g id="ProcessOnG1216" transform="matrix(1.0,0.0,0.0,1.0,10.0,6.163974251887522)"><text id="ProcessOnText1217" fill="#000000" font-size="13" x="27.07408920516611" y="13.325" font-family="微软雅黑" font-weight="normal" font-style="normal" text-decoration="none" family="微软雅黑" text-anchor="middle" size="13">缺失值</text></g></g><g id="ProcessOnG1218" transform="matrix(1.0,0.0,0.0,1.0,904.3111702026602,426.1591545913045)" opacity="1.0"><path id="ProcessOnPath1219" d="M0.0 0.0L46.59151581525455 0.0L46.59151581525455 24.75834781859814L0.0 24.75834781859814Z" stroke="#000000" stroke-width="2.0" stroke-dasharray="none" opacity="1.0" fill="#ffffff"/><g id="ProcessOnG1220" transform="matrix(1.0,0.0,0.0,1.0,10.0,-3.8708260907009304)"><text id="ProcessOnText1221" fill="#000000" font-size="13" x="12.295757907627276" y="13.325" font-family="微软雅黑" font-weight="normal" font-style="normal" text-decoration="none" family="微软雅黑" text-anchor="middle" size="13">验</text><text id="ProcessOnText1222" fill="#000000" font-size="13" x="12.295757907627276" y="29.575" font-family="微软雅黑" font-weight="normal" font-style="normal" text-decoration="none" family="微软雅黑" text-anchor="middle" size="13">证</text></g></g><g id="ProcessOnG1223" transform="matrix(1.0,0.0,0.0,1.0,583.7675062186671,423.72955544675466)" opacity="1.0"><path id="ProcessOnPath1224" d="M0.0 0.0L76.14817841033222 0.0L76.14817841033222 28.577948503775044L0.0 28.577948503775044Z" stroke="#000000" stroke-width="2.0" stroke-dasharray="none" opacity="1.0" fill="#ffffff"/><g id="ProcessOnG1225" transform="matrix(1.0,0.0,0.0,1.0,10.0,6.163974251887522)"><text id="ProcessOnText1226" fill="#000000" font-size="13" x="27.07408920516611" y="13.325" font-family="微软雅黑" font-weight="normal" font-style="normal" text-decoration="none" family="微软雅黑" text-anchor="middle" size="13">异常值</text></g></g><g id="ProcessOnG1227" transform="matrix(1.0,0.0,0.0,1.0,851.2865910245068,425.6665855482226)" opacity="1.0"><path id="ProcessOnPath1228" d="M0.0 0.0L46.59151581525455 0.0L46.59151581525455 24.75834781859814L0.0 24.75834781859814Z" stroke="#000000" stroke-width="2.0" stroke-dasharray="none" opacity="1.0" fill="#ffffff"/><g id="ProcessOnG1229" transform="matrix(1.0,0.0,0.0,1.0,10.0,-3.8708260907009304)"><text id="ProcessOnText1230" fill="#000000" font-size="13" x="12.295757907627276" y="13.325" font-family="微软雅黑" font-weight="normal" font-style="normal" text-decoration="none" family="微软雅黑" text-anchor="middle" size="13">训</text><text id="ProcessOnText1231" fill="#000000" font-size="13" x="12.295757907627276" y="29.575" font-family="微软雅黑" font-weight="normal" font-style="normal" text-decoration="none" family="微软雅黑" text-anchor="middle" size="13">练</text></g></g><g id="ProcessOnG1232" transform="matrix(1.0,0.0,0.0,1.0,760.9024890742525,425.08609325263484)" opacity="1.0"><path id="ProcessOnPath1233" d="M0.0 0.0L74.929556495709 0.0L74.929556495709 26.616549454650226L0.0 26.616549454650226Z" stroke="#000000" stroke-width="2.0" stroke-dasharray="none" opacity="1.0" fill="#ffffff"/><g id="ProcessOnG1234" transform="matrix(1.0,0.0,0.0,1.0,10.0,5.183274727325113)"><text id="ProcessOnText1235" fill="#000000" font-size="13" x="26.464778247854497" y="13.325" font-family="微软雅黑" font-weight="normal" font-style="normal" text-decoration="none" family="微软雅黑" text-anchor="middle" size="13">... ...</text></g></g><g id="ProcessOnG1236" transform="matrix(1.0,0.0,0.0,1.0,957.3357493808135,426.3638025930992)" opacity="1.0"><path id="ProcessOnPath1237" d="M0.0 0.0L46.59151581525455 0.0L46.59151581525455 24.75834781859814L0.0 24.75834781859814Z" stroke="#000000" stroke-width="2.0" stroke-dasharray="none" opacity="1.0" fill="#ffffff"/><g id="ProcessOnG1238" transform="matrix(1.0,0.0,0.0,1.0,10.0,-3.8708260907009304)"><text id="ProcessOnText1239" fill="#000000" font-size="13" x="12.295757907627276" y="13.325" font-family="微软雅黑" font-weight="normal" font-style="normal" text-decoration="none" family="微软雅黑" text-anchor="middle" size="13">测</text><text id="ProcessOnText1240" fill="#000000" font-size="13" x="12.295757907627276" y="29.575" font-family="微软雅黑" font-weight="normal" font-style="normal" text-decoration="none" family="微软雅黑" text-anchor="middle" size="13">试</text></g></g></g></g></svg>